<svg xmlns="http://www.w3.org/2000/svg" width="29.378" height="18.853" viewBox="0 0 29.378 18.853"><defs><style>.a{fill:#80232a;}</style></defs><path class="a" d="M29.592,34.994a2.4,2.4,0,0,1,1.586,2.624v.305h-8.3v-.4c.031-2.258-.976-3.813-2.746-4.24a3.422,3.422,0,0,0,.153-.671,5.252,5.252,0,0,1-.885-2.227c-.183-.031-.458-.305-.732-1.281-.366-1.281-.031-1.525.305-1.525h.061a3.617,3.617,0,0,1-.092-2.044,3.855,3.855,0,0,1,1.037-1.83,4.12,4.12,0,0,1,.976-.793,3.937,3.937,0,0,1,.946-.488h0a2.647,2.647,0,0,1,.854-.153c.122,0,.244-.031.366-.031a3.5,3.5,0,0,1,1.769.458,2.617,2.617,0,0,1,1.037.976S27.823,23.8,27,27.825h0c.244.092.427.458.153,1.495-.275,1.007-.549,1.281-.732,1.281-.061,0-.092-.031-.153-.061a5.072,5.072,0,0,1-.824,2.044,3.111,3.111,0,0,0,.366,1.1A17.5,17.5,0,0,0,29.592,34.994ZM16.016,29.137c.244,0,.549-.305.885-1.525.366-1.281.153-1.678-.153-1.8h0c1.007-4.82-1.281-4.973-1.281-4.973a3.029,3.029,0,0,0-1.251-1.159,4.131,4.131,0,0,0-2.135-.58,2.014,2.014,0,0,0-.427.031,4.926,4.926,0,0,0-1.007.183h0a4.931,4.931,0,0,0-1.129.58,5.8,5.8,0,0,0-1.159.976A4.839,4.839,0,0,0,7.108,23.1,4.294,4.294,0,0,0,7.2,25.568H7.108c-.4,0-.793.305-.366,1.83.336,1.19.641,1.525.885,1.525a5.725,5.725,0,0,0,1.068,2.685,3.411,3.411,0,0,1-.366,1.159,27.291,27.291,0,0,1-4.637,1.647c-1.647.4-1.891,2.074-1.891,3.173v.366H21.721v-.4c0-1.1-.244-2.746-1.891-3.173a28.853,28.853,0,0,1-4.576-1.556,3.024,3.024,0,0,1-.427-1.312,5.715,5.715,0,0,0,.976-2.441A.329.329,0,0,0,16.016,29.137Z" transform="translate(-1.8 -19.1)"/></svg>