<svg xmlns="http://www.w3.org/2000/svg" width="16.504" height="18.911" viewBox="0 0 16.504 18.911"><defs><style>.a{fill:#80232a;fill-rule:evenodd;}</style></defs><g transform="translate(-26 -22.5)"><g transform="translate(26 22.5)"><g transform="translate(0 0)"><path class="a" d="M32.7,24.758a6.19,6.19,0,0,0-4.642,5.994v4.126a.688.688,0,0,1-.687.688A1.377,1.377,0,0,0,26,36.941v1.033a.343.343,0,0,0,.345.343H42.159a.345.345,0,0,0,.345-.343V36.941a1.378,1.378,0,0,0-1.376-1.375.686.686,0,0,1-.687-.688V30.752A6.191,6.191,0,0,0,35.8,24.758v-.71a1.547,1.547,0,1,0-3.095,0ZM31.845,39h4.814a2.407,2.407,0,1,1-4.814,0Z" transform="translate(-26 -22.5)"/></g></g></g></svg>