<svg xmlns="http://www.w3.org/2000/svg" width="15.208" height="14.938" viewBox="0 0 15.208 14.938"><defs><style>.a{fill:#80232a;}</style></defs><path class="a" d="M95.123,58.177v.005l0,.009Z" transform="translate(-79.918 -49.293)"/><path class="a" d="M6.372,9.575a.636.636,0,0,0,1.272,0V8.36H8.859a.636.636,0,1,0,0-1.272H7.644V5.872a.636.636,0,1,0-1.272,0V7.088H5.156a.636.636,0,1,0,0,1.272H6.372Z" transform="translate(-4.52 -5.236)"/><path class="a" d="M19.869,68.317v0c-.3-1.458-1-1.806-2.191-2.4a3.1,3.1,0,0,1-4.873,0c-1.193.592-1.9.94-2.192,2.4a6.6,6.6,0,0,0-.127,1A1.31,1.31,0,0,0,11.8,70.67h6.882a1.3,1.3,0,0,0,1.309-1.354,6.867,6.867,0,0,0-.122-1Z" transform="translate(-9.483 -55.732)"/><path class="a" d="M53.715,23.793a2.558,2.558,0,1,0-2.558-2.558A2.558,2.558,0,0,0,53.715,23.793Z" transform="translate(-43.331 -16.422)"/><path class="a" d="M59.477,45.377a3.094,3.094,0,0,1-4.066.72,3.071,3.071,0,0,1-.257,2.264,3.9,3.9,0,0,1,2.109,1.772h3.219a1.3,1.3,0,0,0,1.309-1.355,6.808,6.808,0,0,0-.123-1.007C61.37,46.317,60.668,45.968,59.477,45.377Z" transform="translate(-46.656 -38.641)"/><path class="a" d="M23.574,41.77a2.558,2.558,0,1,0,2.558-2.558A2.558,2.558,0,0,0,23.574,41.77Z" transform="translate(-20.376 -33.51)"/></svg>