<svg xmlns="http://www.w3.org/2000/svg" width="92.357" height="92.357" viewBox="0 0 92.357 92.357"><defs><style>.a{fill:#ff9600;}</style></defs><circle class="a" cx="1.512" cy="1.512" r="1.512" transform="translate(75.672 53.741)"/><rect class="a" width="3.025" height="12.1" transform="translate(75.672 38.616)"/><path class="a" d="M78.461,63.564a14.9,14.9,0,1,0-4-29.232A28.564,28.564,0,0,0,54.627,13.945v-5.5a7.448,7.448,0,0,0-14.9,0v5.5A28.279,28.279,0,0,0,19.915,33.772H1V63.564H18.876V72.5a5.959,5.959,0,0,0,0,11.917H36.87a10.413,10.413,0,0,0,20.616,0H75.481a5.959,5.959,0,0,0,0-11.917V63.263A14.871,14.871,0,0,0,78.461,63.564ZM42.71,8.448a4.469,4.469,0,0,1,8.938,0V13.3a27.855,27.855,0,0,0-3.438-.362,28.511,28.511,0,0,0-5.5.36Zm-8.065,28.3L24.4,47a5.84,5.84,0,0,1-8.065,0L6.086,36.751Zm2.106,2.106V58.479L26.94,48.668Zm-32.772,0,9.811,9.811L3.979,58.479ZM6.086,60.585,16.13,50.541a8.656,8.656,0,0,0,8.47,0L34.645,60.585ZM47.178,90.378a7.462,7.462,0,0,1-7.3-5.959h14.6A7.462,7.462,0,0,1,47.178,90.378ZM78.461,78.461a2.982,2.982,0,0,1-2.979,2.979H18.876a2.979,2.979,0,1,1,0-5.959h2.979V63.564H39.73V33.772H23a25.2,25.2,0,0,1,48.669,1.653A14.876,14.876,0,0,0,72.5,62.312v13.17h2.979A2.982,2.982,0,0,1,78.461,78.461ZM66.544,48.668A11.917,11.917,0,1,1,78.461,60.585,11.931,11.931,0,0,1,66.544,48.668Z" transform="translate(-1 -1)"/><path class="a" d="M32.816,13.015C32.544,13,32.271,13,32,13v2.979c.238,0,.477,0,.714.012a18.972,18.972,0,0,1,14.978,8.287l2.446-1.7A21.937,21.937,0,0,0,32.816,13.015Z" transform="translate(14.178 4.876)"/><rect class="a" width="15.125" height="3.025" transform="translate(23.491 71.135)"/><rect class="a" width="15.125" height="3.025" transform="translate(23.491 65.841)"/></svg>