<svg xmlns="http://www.w3.org/2000/svg" width="15.622" height="13.853" viewBox="0 0 15.622 13.853"><defs><style>.a{fill:#fff;}</style></defs><path class="a" d="M49.382,10.094H42.194a1.083,1.083,0,0,0-1.083,1.083V11.8h3.071A1.92,1.92,0,0,1,46.1,13.722v3.446h.6l2.213,3.022a.107.107,0,0,0,.194-.062V17.167h.276a1.085,1.085,0,0,0,1.083-1.085V11.177A1.085,1.085,0,0,0,49.382,10.094Z" transform="translate(-34.843 -10.094)"/><path class="a" d="M6.224,31.927h.31v3.342a.122.122,0,0,0,.22.072l2.5-3.414h5.086A1.224,1.224,0,0,0,15.562,30.7V25.165a1.224,1.224,0,0,0-1.224-1.224H6.224A1.224,1.224,0,0,0,5,25.165V30.7a1.224,1.224,0,0,0,1.224,1.224Z" transform="translate(-5 -21.538)"/></svg>