<svg xmlns="http://www.w3.org/2000/svg" width="18" height="29.199" viewBox="0 0 18 29.199"><defs><style>.a{fill:#fff;}</style></defs><g transform="translate(-36.5 -28.5)"><g transform="translate(36.5 28.5)"><path class="a" d="M39.166,30.5a.666.666,0,0,0-.666.666v22.2c0,.368.233.472.515.237l5.971-4.976a.837.837,0,0,1,1.029,0L51.986,53.6c.284.237.515.131.515-.237v-22.2a.662.662,0,0,0-.666-.666ZM37.524,57.449c-.565.471-1.024.258-1.024-.485V29.838A1.338,1.338,0,0,1,37.838,28.5H53.162A1.336,1.336,0,0,1,54.5,29.838V56.964c0,.739-.459.956-1.024.485L46.01,51.227a.83.83,0,0,0-1.019,0Zm7.684-15.108-1.008.53c-.156.082-.267.008-.236-.172l.193-1.122a.712.712,0,0,0-.18-.555l-.815-.795c-.126-.123-.09-.252.09-.278l1.127-.164a.712.712,0,0,0,.472-.343l.5-1.021c.078-.158.211-.163.292,0l.5,1.021a.712.712,0,0,0,.472.343l1.127.164c.175.025.221.151.09.278l-.815.795a.712.712,0,0,0-.18.555l.193,1.122c.03.174-.075.256-.236.172l-1.008-.53A.712.712,0,0,0,45.208,42.341Zm-2.7,3.058,2.4-1.261a1.431,1.431,0,0,1,1.182,0l2.4,1.261c.322.169.541.016.478-.347l-.458-2.67a1.431,1.431,0,0,1,.365-1.125l1.94-1.891c.261-.254.182-.509-.183-.562l-2.681-.39a1.43,1.43,0,0,1-.957-.7L45.8,35.29c-.161-.326-.428-.331-.591,0l-1.2,2.429a1.431,1.431,0,0,1-.957.7l-2.681.39c-.36.052-.447.3-.183.562l1.94,1.891a1.431,1.431,0,0,1,.365,1.125l-.458,2.67C41.971,45.411,42.185,45.571,42.511,45.4Z" transform="translate(-36.5 -28.5)"/></g></g></svg>