<svg xmlns="http://www.w3.org/2000/svg" width="19.681" height="17.423" viewBox="0 0 19.681 17.423"><defs><style>.a,.b{fill:#8c8c8c;}.a{fill-rule:evenodd;}</style></defs><path class="a" d="M54.944,57.295v9.06H49.237V61.119a.59.59,0,0,0-.588-.588H46.3a.633.633,0,0,0-.588.588v5.236H40v-9.06L47.472,52Z" transform="translate(-37.639 -48.933)"/><path class="b" d="M1.056,7.636A.753.753,0,0,1,0,7.459a.736.736,0,0,1,.176-1L9.293-.013a.706.706,0,0,1,.882.059l9.06,6.413a.686.686,0,0,1,.177,1,.693.693,0,0,1-1,.176L9.7,1.517Z" transform="translate(0.128 0.138)"/></svg>