<svg xmlns="http://www.w3.org/2000/svg" width="22.047" height="18.853" viewBox="0 0 22.047 18.853"><defs><style>.a{fill:#8c8c8c;}</style></defs><path class="a" d="M8.493,43.75a1.65,1.65,0,1,0,0,3.228H24.257a1.65,1.65,0,1,0,0-3.228Z" transform="translate(-4.203 -35.937)"/><path class="a" d="M6.5,12.474a1.607,1.607,0,0,0,1.584,1.614H26.963a1.614,1.614,0,0,0,0-3.228H8.084A1.617,1.617,0,0,0,6.5,12.474Z" transform="translate(-6.5 4.766)"/><path class="a" d="M16.519,76.64H8.114a1.614,1.614,0,0,0,0,3.228h8.405a1.614,1.614,0,0,0,0-3.228Z" transform="translate(3.913 -76.64)"/></svg>